<?xml version="1.0" standalone="no"?>
<!DOCTYPE svg PUBLIC "-//W3C//DTD SVG 20010904//EN"
 "http://www.w3.org/TR/2001/REC-SVG-20010904/DTD/svg10.dtd">
<svg version="1.0" xmlns="http://www.w3.org/2000/svg"
 width="138.000000pt" height="138.000000pt" viewBox="0 0 138.000000 138.000000"
 preserveAspectRatio="xMidYMid meet">
<metadata>
Created by potrace 1.14, written by Peter Selinger 2001-2017
</metadata>
<g transform="translate(0.000000,138.000000) scale(0.100000,-0.100000)"
fill="#000000" stroke="none">
<path d="M728 1296 c-1 -2 -45 -6 -96 -9 -51 -4 -97 -9 -101 -11 -4 -3 -21 -7
-37 -10 -16 -3 -66 -24 -112 -47 -62 -30 -102 -59 -155 -113 -315 -314 -189
-843 235 -993 65 -23 88 -26 208 -26 157 0 228 14 340 70 156 79 282 250 315
428 7 39 7 172 0 210 -23 123 -82 234 -170 320 -65 63 -88 80 -157 114 -72 36
-116 49 -193 57 -27 3 -55 7 -62 9 -6 2 -13 2 -15 1z m-58 -403 c75 -43 153
-87 174 -98 63 -33 95 -67 89 -97 -4 -21 -39 -45 -199 -138 -109 -62 -201
-109 -209 -106 -18 7 -17 -23 -15 409 0 79 3 107 13 107 7 0 73 -35 147 -77z"/>
<path d="M2 390 c0 -14 2 -19 5 -12 2 6 2 18 0 25 -3 6 -5 1 -5 -13z"/>
</g>
</svg>
